Patient4_TMGait_0pt7_01_left_50_EMG.mot
version=1
nRows=36
nColumns=33
inDegrees=no
endheader
time	1LAddLong	2LGlutMax	3LGlutMed	4LIliopsoas	5LSemiMemb	6LBicFemLong	7LRecFem	8LVastMed	9LVastLat	10LGasMed	11LTibAnt	12lTibPost	13LPeroneusLong	14LSol	15LExtDigLong	16LFlexDigLong	17RAddLong	18RGlutMax	19RGlutMed	20RIliopsoas	21RSemiMemb	22RBicFemLong	23RRecFem	24RVastMed	25RVastLat	26RGasMed	27RTibAnt	28RTibPost	29RPeroneusLong	30RSol	31RExtDigLong	32RFlexDigLong
59.298	0.005646	-0.12253	-0.056305	0.035553	-0.039978	0.006561	-0.19562	0.003967	0.10819	-0.027618	0.00946	0.006104	0.03006	-0.041656	0.00351	0.001373	-0.046539	-0.24887	-0.24124	0.011139	0.009155	0.037384	0.059967	0.036163	0.10651	0.011902	-0.079346	-0.02243	-0.019989	0.064392	-0.002899	0.001678
59.299	0.010376	-0.097961	-0.073853	0.034027	-0.014343	-0.075073	-0.20752	0.005493	0.10208	-0.037231	0.020294	0.00412	0.027771	-0.054016	0.084839	0.000305	-0.032043	-0.21835	-0.17258	0.025482	-0.018768	0.023651	0.19791	-0.098572	-0.030518	0.003662	-0.16113	0.026703	-0.031281	-0.25971	0	-0.005341
59.3	0.00946	-0.095062	-0.058441	0.018311	0.054626	-0.081177	-0.18601	-0.003662	0.072937	-0.042419	0.020599	0.014038	0.002747	-0.11093	0.013733	0.007477	-0.005188	-0.23895	-0.20828	0.00885	0.043945	-0.018616	0.29358	-0.20615	-0.14389	-0.012512	-0.20203	-0.010223	-0.12436	-0.39932	-0.001526	-0.00885
59.301	0.009003	-0.08667	-0.067444	0.006104	0.045929	-0.050049	-0.12543	0.002441	0.048676	-0.034485	0.031128	0.007935	-0.024261	-0.10254	-0.040131	0.002136	0.026703	-0.23834	-0.20508	0.003815	0.03067	-0.059204	0.31738	-0.32562	-0.19287	-0.020905	-0.0914	-0.018005	-0.1889	-0.10407	-0.002136	-0.007172
59.302	0.007019	-0.094452	-0.11902	0.005188	0.036163	-0.084381	-0.11459	0.001068	0.031433	-0.027618	0.005646	0.007477	-0.012054	-0.09079	-0.035248	0.001373	0.005646	-0.2626	-0.31921	-0.004883	0.013275	-0.033417	0.10712	-0.13779	-0.041199	-0.014343	-0.007019	0.001831	-0.16144	0.007935	-0.006104	-0.010834
59.303	0.008698	-0.12711	-0.11429	0.017242	0.004272	-0.084839	-0.070953	-0.002289	0.028381	-0.029144	-0.017853	0.010376	0.023193	-0.10956	-0.02533	0.005035	0.007019	-0.25971	-0.2388	0.030518	0.002441	-0.024109	-0.12543	-0.076447	0.05661	-0.021973	0.21957	0.031738	-0.19531	0.040436	-0.001373	-0.013885
59.304	0.022278	-0.12985	-0.066986	-0.002747	0.02533	-0.054932	-0.05249	-0.000916	0.034943	-0.027161	-0.027618	-0.003662	0.006866	-0.087738	-0.016632	0.01358	-0.014954	-0.26428	-0.12589	0.058441	-0.10895	-0.000153	-0.26703	-0.20294	0.11734	-0.002136	0.51483	0.06012	-0.11353	-0.072937	-0.002441	-0.02121
59.305	0.020599	-0.15595	-0.026398	-0.006256	0.063324	-0.028381	-0.036469	-0.00351	0.051422	-0.03479	-0.02182	-0.002594	-0.013733	-0.067444	0.00061	0.010529	-0.028229	-0.28763	0.041046	0.12817	-0.066833	-0.000305	-0.25879	-0.086212	0.31036	0.002289	0.82001	-0.034332	-0.23438	-0.3212	0.001526	-0.023041
59.306	-0.054626	-0.14557	-0.051727	0.001373	0.058441	0.004883	-0.022888	0.006866	0.050507	-0.054169	0.026703	0.003357	0.046844	-0.050507	0.002289	0.013733	0.003967	-0.26779	-0.30502	0.13428	-0.016479	-0.084839	-0.087128	0.13748	0.27695	-0.005646	0.85602	-0.012054	-0.37918	-0.63171	-0.001373	-0.023804
59.307	0.058136	-0.1506	-0.12009	-0.005493	0.047607	0.017548	-0.006104	0.003204	0.03952	-0.036469	0.1062	0	0.004578	-0.065613	0.033264	0.023193	0.031738	-0.24094	-0.39429	0.12619	0.029297	-0.093079	-0.086975	0.051117	0.17822	0.001678	0.47821	-0.023193	-0.25772	-0.63278	0.002441	-0.009155
59.308	0.018463	-0.15549	-0.19348	-0.007019	0.030823	0.0177	0.009613	0.001984	0.044098	-0.020447	0.06424	-0.013123	0.023041	-0.098877	0.016937	0.014343	0.0177	-0.23727	-0.2327	0.081482	0.067444	-0.13138	0.033569	-0.003052	0.078278	0.00061	0.004578	0.001831	-0.2887	-0.80399	-0.002136	-0.015259
59.309	0.005341	-0.15656	-0.11581	-0.007172	0.034637	-0.034637	0.007477	0.005951	0.021667	-0.030823	0.033264	0.000763	-0.003662	-0.079956	0.003967	0.013275	0.017242	-0.17624	-0.21057	-0.005341	0.089722	-0.17044	0.14999	-0.022888	-0.00412	-0.012054	-0.63492	0.00946	-0.017548	-0.95535	-0.001984	-0.011139
59.31	-0.01236	-0.18005	0.07431	0.007324	0.040894	0.015411	0.024872	-0.001221	0.012207	-0.040588	0.020599	-0.002289	-0.003357	-0.052948	-0.014496	0.012054	0.005798	-0.17502	0.00885	-0.051575	-0.032349	-0.20416	0.079651	-0.068817	-0.025482	0.013275	-0.37003	-0.040436	0.19486	-0.34576	0.001984	-0.015564
59.311	-0.008392	-0.17777	0.14313	0.013733	0.02533	0.037384	0.007782	0.009003	0.003967	-0.033112	0.020142	-0.002289	0.007935	-0.033112	-0.01297	0.000305	0.017548	-0.18768	-0.2626	-0.013733	-0.16632	-0.1236	-0.06485	-0.1088	0.027008	0.011444	0.35416	-0.078125	0.057983	0.17502	-0.000763	-0.00473
59.312	-0.007172	-0.15945	0.15106	0.015564	0.004883	0.005188	-0.022278	0.007324	-0.009308	-0.031586	0.014038	0.002899	0.001831	-0.03006	-0.004578	0.007782	0.013428	-0.17685	-0.2594	0.025787	-0.2861	-0.04776	-0.16159	-0.14145	0.11002	0.009155	-0.00473	0.046844	-0.17303	0.51697	-0.002289	-0.001526
59.313	-0.011292	-0.11643	0.085144	-0.002441	-0.006714	-0.018463	-0.030975	0.006714	-0.011444	-0.041809	0.023804	0.002594	-0.003815	-0.018768	0.00885	0.012512	0.001984	-0.16266	-0.14648	0.007935	-0.28992	-0.023804	-0.13229	-0.11124	0.14542	0.01236	0.024567	0.021515	-0.14145	0.30884	-0.007629	0
59.314	0.004272	-0.13657	0.063934	0.010986	-0.002441	-0.027466	-0.036926	-0.006561	-0.016022	-0.019684	0.02594	0.001831	-0.010223	-0.030212	0.009155	0.016022	-0.001526	-0.1741	-0.028839	-0.039978	-0.066223	0.014038	-0.23544	-0.025482	0.16739	0.015717	0.14893	0.007172	0.014648	0.24811	-0.00061	0.000763
59.315	0.009613	-0.080719	0.041962	0.013428	0.029449	0.011292	-0.056915	0	-0.021057	-0.042877	0.016174	-0.000916	0.000153	-0.011139	0.016174	0.020905	-0.031586	-0.18539	0.32577	-0.042725	0.023956	0.04776	-0.20172	0.15366	0.1413	0.02182	0.21316	0.001831	0.18021	0.12207	-0.002441	-0.008545
59.316	0.007477	-0.088654	0.021515	0.003052	-0.04303	-0.004425	-0.078888	0	-0.018158	-0.031586	0.017395	0.027161	-0.000153	-0.033264	-0.01236	0.018005	-0.031128	-0.20783	0.16785	-0.014038	-0.052185	0.09552	0.000458	0.23071	0.065002	0.025787	0.60425	-0.000458	0.37415	0.1532	-0.007477	-0.00412
59.317	0.007935	-0.10346	0.011902	0.007935	-0.11093	-0.035706	-0.093994	0	-0.003357	-0.038452	0.02182	-0.004578	0.015869	-0.055084	-0.022736	0.013428	0.010834	-0.23346	0.020142	-0.000305	0.041656	0.045319	0.16724	0.15854	0.026093	0.029602	-0.34851	-0.002747	0.37415	0.028687	-0.002747	-0.008392
59.318	0.006561	-0.10651	-0.021362	0.002441	-0.071564	-0.000763	-0.099945	-0.004578	0.002289	-0.031433	0.012512	0.000763	-0.019073	-0.054626	-0.005646	0.013428	0.024261	-0.25253	0.020599	0.020142	0.085144	-0.046692	0.18097	0.14053	-0.014191	0.009003	-0.96512	-0.009918	0.17395	-0.079041	-0.006409	-0.012817
59.319	0.009003	-0.089417	-0.026703	0.001068	0.013428	0.035553	-0.098877	0.000916	-0.001984	-0.036011	0.005951	-0.011444	-0.009003	-0.03952	-0.002136	0.013275	-0.005035	-0.20706	0.34988	0.11658	-0.010376	-0.024414	0.14313	0.10422	-0.016937	-0.029297	-0.79193	-0.011902	0.088654	-0.018463	-0.003357	-0.014343
59.32	0.002747	-0.04776	-0.042267	0.009003	0.070953	0.056763	-0.10986	-0.001373	-0.020142	-0.044708	0.00946	-0.01358	0.014648	-0.046997	0.001984	0.023193	-0.010529	-0.23834	0.1149	0.15762	-0.28549	0.068665	-0.12741	0.004272	0.002594	-0.028381	-0.7486	-0.003204	0.14008	0.10025	-0.000153	-0.023193
59.321	-0.00824	-0.04837	0.008392	0.013123	0.080414	0.000916	-0.10498	-0.007172	-0.000916	-0.032043	0.010681	-0.009003	0.006714	-0.069275	0.013733	0.007324	-0.022278	-0.23605	0.02121	0.068512	-0.22964	0.083466	-0.33875	-0.035095	0.020142	-0.001984	-0.50186	-0.001221	0.1619	0.066376	-0.002441	-0.015564
59.322	-0.014648	-0.028534	0.01236	-0.00061	0.031586	0.004272	-0.11887	0.004425	-0.014648	-0.026703	0.014496	-0.009308	0.001984	-0.093384	0.023346	0.006409	-0.008392	-0.19547	-0.073395	0.022125	0.029602	0.033264	-0.17517	-0.041656	0.10376	0.005798	-0.22339	-0.005493	0.099792	0.057526	0.009613	-0.014496
59.323	-0.011292	-0.041351	-0.040131	0.006866	0.034332	-0.016785	-0.12222	-0.000153	-0.014038	-0.014801	0.031891	-0.009308	-0.0177	-0.092468	0.026703	0.013123	-0.004272	-0.1944	0.071564	-0.03952	0.19424	-0.01709	-0.067444	0.003204	0.13092	-0.014496	0.060883	-0.014801	0.027008	0.034943	0.002136	-0.014496
59.324	0.002594	-0.025177	-0.037384	0.005341	-0.014038	-0.056458	-0.12497	-0.006714	-0.022125	-0.011597	0.024414	-0.008545	-0.019226	-0.12146	0.020294	0.006256	-0.016327	-0.15411	0.22095	-0.059814	0.18936	-0.046539	-0.031281	-0.007172	0.095825	-0.023956	0.26901	-0.011444	-0.031281	0.24719	0.003662	-0.014343
59.325	0.019379	-0.015869	-0.078125	0.01236	-0.00824	-0.10346	-0.12985	-0.008698	-0.016785	-0.016937	0.011444	-0.006561	0.015564	-0.094299	0.00473	0.001373	-0.015259	-0.15823	0.36606	-0.10162	0.10346	-0.027161	0.078583	0.01358	0.07309	-0.026703	0.38361	-0.011902	-0.12741	0.45624	-0.002594	-0.0177
59.326	0.045013	-0.007935	-0.10162	0.010681	0.079041	-0.045929	-0.14587	-0.007477	-0.020599	-0.022125	0.000763	-0.00946	-0.021515	-0.025787	-0.005951	-0.002289	-0.02121	-0.13763	0.1648	-0.080566	-0.035858	0.052338	0.017548	-0.060272	0.081024	-0.014343	0.37323	0.000305	-0.097504	0.25024	0.000305	-0.011139
59.327	0.032806	-0.026703	-0.11429	0.023041	0.085754	-0.001526	-0.12528	-0.012817	-0.00824	-0.030365	-0.005035	-0.008087	-0.039825	-0.012817	0.001068	0.00351	-0.002136	-0.17639	0.24155	-0.18402	0.025787	0.084839	-0.061646	-0.11551	0.071869	0.025635	0.23361	0.005493	-0.063324	-0.030518	-0.002136	-0.007477
59.328	0.024414	-0.043793	-0.17654	0.008392	0.020447	0.001526	-0.13062	-0.007782	-0.023041	-0.03891	0.027466	-0.010376	-0.014191	-0.077972	0.000763	0.006866	-0.010529	-0.20065	0.15274	-0.20508	0.027924	0.020905	-0.033722	0.020905	0.10651	0.013275	-0.023499	0	-0.13077	-0.17914	-0.001373	-0.000153
59.329	0.0177	-0.046844	-0.11887	0.008392	0.020752	-0.004883	-0.14481	-0.013123	-0.00946	-0.050659	0.031281	-0.01236	-0.028534	-0.0914	0.004883	0.008545	0.001678	-0.18753	-0.30167	-0.12375	0.040588	0.011749	0.1622	-0.067139	0.008545	-0.002899	-0.36636	-0.001221	-0.22949	-0.1799	-0.001526	-0.001221
59.33	0.00885	-0.048981	0.021362	-0.007172	0.063019	-0.097504	-0.12405	-0.012665	-0.010223	-0.036163	0.031586	-0.009918	-0.015411	-0.081635	0.015564	0.009308	0.014648	-0.14603	-0.36789	-0.084991	0.007477	0.019684	0.13565	-0.14465	-0.066071	-0.000916	-0.87097	-0.000305	-0.047302	-0.13916	0.000458	0.000763
59.331	0.01297	-0.054169	-0.02121	0.014038	0.066833	-0.19486	-0.12039	-0.007935	-0.013275	-0.039215	0.023651	-0.014343	-0.029907	-0.098572	0.00824	0.00824	0.027771	-0.1976	-0.16632	0.10056	0.044708	-0.010986	-0.068359	-0.14648	-0.09079	-0.008392	-0.77393	0.00061	-0.019684	0.04837	0.001984	-0.002441
59.332	0.010529	-0.05188	-0.071411	0.022278	0.068054	-0.13779	-0.13367	-0.005951	-0.009766	-0.038452	0.037537	-0.010834	-0.034027	-0.065155	0.01709	0.003204	0.029755	-0.16693	0.19287	0.35248	-0.025024	0.015869	-0.11765	-0.040741	-0.013733	0.00061	-0.65475	0.007324	0.066681	-0.12634	0.003052	-0.005798
59.333	0.007629	-0.066833	-0.10681	0.011749	0.052795	-0.025787	-0.13138	-0.006409	-0.01297	-0.029449	0.020905	-0.004578	-0.02533	-0.06485	0.019073	0.006714	0.006866	-0.13168	0.17731	0.45853	-0.083008	-0.021362	-0.066071	0.062408	0.11597	0.007629	-0.13702	0.001831	0.15243	-0.2533	0.000916	0
